<?xml version="1.0" encoding="UTF-8"?>
<level>
  <owner>Fistachka</owner>
  <repo>dedmoroz2</repo>
  <version>v1.0.7</version>
  <next number="1" owner="Fistachka" repo="dedmoroz3"/>
  <readme>
    <ru>226621ad5d8fafaba9c6fb33375a82c71332c325930046585172c15c14840444</ru>
    <en>689a1b9b477d0b61ed4ad2a1e0e5ac55796ce25b037644e4813697a609275756</en>
  </readme>
  <license>b1b99f5538d1fd3702219bff50c665196dfa42f6ee755c37fe41a6178d6bc6e5</license>
  <exercise number="1">
    <scale>major</scale>
    <bpm>172</bpm>
    <lowestNote>58</lowestNote>
    <tonalities>8</tonalities>
    <video name="12t.mp4" size="1537125" type="video/mp4" volume="0.5">b2973320c0adfc74e40039ccd2e32094169f05fb49e5fce9a99851ca5afae5ad</video>
    <notes>
      <note number="1" values="58" ticks="37" durationTicks="38" ppq="96" velocity="0.843"/>
      <note number="2" values="58" ticks="86" durationTicks="36" ppq="96" velocity="0.906"/>
      <note number="3" values="58" ticks="133" durationTicks="38" ppq="96" velocity="0.866"/>
      <note number="4" values="58" ticks="182" durationTicks="35" ppq="96" velocity="0.913"/>
      <note number="5" values="58" ticks="229" durationTicks="90" ppq="96" velocity="0.913"/>
      <note number="6" values="188" ticks="329" durationTicks="86" ppq="96" velocity="0.719"/>
      <note number="7" values="58" ticks="421" durationTicks="128" ppq="96" velocity="1"/>
    </notes>
  </exercise>
  <exercise number="2">
    <scale>major</scale>
    <bpm>172</bpm>
    <lowestNote>58</lowestNote>
    <tonalities>8</tonalities>
    <video name="13t.mp4" size="1162566" type="video/mp4" volume="0.5">1a37c3b236245113e62b6c47991623f3a00ac591e91779e28f641e25bdd94a79</video>
    <notes>
      <note number="1" values="288" ticks="36" durationTicks="95" ppq="96" velocity="0.843"/>
      <note number="2" values="58" ticks="132" durationTicks="96" ppq="96" velocity="0.906"/>
      <note number="3" values="288" ticks="228" durationTicks="97" ppq="96" velocity="0.858"/>
    </notes>
  </exercise>
  <exercise number="3">
    <scale>major</scale>
    <bpm>172</bpm>
    <lowestNote>58</lowestNote>
    <tonalities>8</tonalities>
    <video name="14t.mp4" size="1682387" type="video/mp4" volume="0.5">d74c61db6e77180e6c03ccc71741cd73a47f3211763cdcd6a4080e8932d8b654</video>
    <notes>
      <note number="1" values="58" ticks="29" durationTicks="41" ppq="96" velocity="0.843"/>
      <note number="2" values="58" ticks="78" durationTicks="41" ppq="96" velocity="0.906"/>
      <note number="3" values="58" ticks="125" durationTicks="42" ppq="96" velocity="0.858"/>
      <note number="4" values="58" ticks="174" durationTicks="42" ppq="96" velocity="0.906"/>
      <note number="5" values="58" ticks="220" durationTicks="95" ppq="96" velocity="0.782"/>
      <note number="6" values="388" ticks="313" durationTicks="93" ppq="96" velocity="0.857"/>
      <note number="7" values="58" ticks="410" durationTicks="92" ppq="96" velocity="0.752"/>
    </notes>
  </exercise>
  <exercise number="4">
    <scale>major</scale>
    <bpm>172</bpm>
    <lowestNote>58</lowestNote>
    <tonalities>8</tonalities>
    <video name="15t.mp4" size="1248377" type="video/mp4" volume="0.5">1e563f898893445b5cf51023ef3bf51d08228ea0f834d8126028bc5024a06381</video>
    <notes>
      <note number="1" values="488" ticks="24" durationTicks="95" ppq="96" velocity="0.843"/>
      <note number="2" values="388" ticks="120" durationTicks="96" ppq="96" velocity="0.906"/>
      <note number="3" values="488" ticks="216" durationTicks="95" ppq="96" velocity="0.85"/>
    </notes>
  </exercise>
  <exercise number="5">
    <scale>major</scale>
    <bpm>172</bpm>
    <lowestNote>58</lowestNote>
    <tonalities>8</tonalities>
    <video name="16.mp4" size="2192373" type="video/mp4" volume="0.5">bde876efad503ae480d7b94366f4eb3b2d40ef85fde22931ffe42bec13b976eb</video>
    <notes>
      <note number="1" values="588" ticks="23" durationTicks="42" ppq="96" velocity="0.843"/>
      <note number="2" values="588" ticks="72" durationTicks="39" ppq="96" velocity="0.906"/>
      <note number="3" values="588" ticks="119" durationTicks="41" ppq="96" velocity="0.85"/>
      <note number="4" values="588" ticks="168" durationTicks="47" ppq="96" velocity="0.906"/>
    </notes>
  </exercise>
  <exercise number="6">
    <scale>major</scale>
    <bpm>172</bpm>
    <lowestNote>58</lowestNote>
    <tonalities>8</tonalities>
    <video name="17t.mp4" size="1682627" type="video/mp4" volume="0.5">e7d5ac57b45a981943692c329cdcb4ad85e6a780160a776612ccba17660b0e60</video>
    <notes>
      <note number="1" values="588" ticks="30" durationTicks="95" ppq="96" velocity="0.843"/>
      <note number="2" values="388" ticks="126" durationTicks="96" ppq="96" velocity="0.906"/>
      <note number="3" values="188" ticks="222" durationTicks="95" ppq="96" velocity="0.843"/>
      <note number="4" values="388" ticks="319" durationTicks="95" ppq="96" velocity="0.906"/>
      <note number="5" values="188" ticks="414" durationTicks="96" ppq="96" velocity="0.906"/>
      <note number="6" values="388" ticks="511" durationTicks="96" ppq="96" velocity="0.8"/>
    </notes>
  </exercise>
  <exercise number="7">
    <scale>major</scale>
    <bpm>172</bpm>
    <lowestNote>58</lowestNote>
    <tonalities>8</tonalities>
    <video name="18t.mp4" size="2918802" type="video/mp4" volume="0.5">7cd469a3d74a7dba747cfcb0b4d8e590ba0a7b2b2322919926c6e53f0c4bd40b</video>
    <notes>
      <note number="1" values="58" ticks="53" durationTicks="43" ppq="96" velocity="0.843"/>
      <note number="2" values="58" ticks="102" durationTicks="41" ppq="96" velocity="0.906"/>
      <note number="3" values="58" ticks="149" durationTicks="41" ppq="96" velocity="0.858"/>
      <note number="4" values="58" ticks="198" durationTicks="38" ppq="96" velocity="0.906"/>
      <note number="5" values="58" ticks="245" durationTicks="85" ppq="96" velocity="0.906"/>
      <note number="6" values="288" ticks="332" durationTicks="95" ppq="96" velocity="0.717"/>
      <note number="7" values="188" ticks="436" durationTicks="96" ppq="96" velocity="0.717"/>
    </notes>
  </exercise>
  <exercise number="8">
    <scale>major</scale>
    <bpm>172</bpm>
    <lowestNote>58</lowestNote>
    <tonalities>8</tonalities>
    <video name="8t.mp4" size="1803579" type="video/mp4" volume="0.5">a2a02b6136fdb5f5e94e4923e8b357b45b60218812a36a71c8f0847837c18ed7</video>
    <notes>
      <note number="1" values="588" ticks="184" durationTicks="179" ppq="96" velocity="0.843"/>
      <note number="2" values="388" ticks="373" durationTicks="88" ppq="96" velocity="0.906"/>
      <note number="3" values="388" ticks="471" durationTicks="95" ppq="96" velocity="0.858"/>
      <note number="4" values="588" ticks="566" durationTicks="89" ppq="96" velocity="0.906"/>
      <note number="5" values="588" ticks="663" durationTicks="95" ppq="96" velocity="0.906"/>
      <note number="6" values="388" ticks="765" durationTicks="115" ppq="96" velocity="0.802"/>
    </notes>
  </exercise>
  <exercise number="9">
    <scale>major</scale>
    <bpm>172</bpm>
    <lowestNote>58</lowestNote>
    <tonalities>8</tonalities>
    <video name="9t.mp4" size="1713185" type="video/mp4" volume="0.5">ae577d3479af273d2e3b113f8e9b2d170b9884b3eb06210ecadd6df33879bca4</video>
    <notes>
      <note number="1" values="588" ticks="170" durationTicks="75" ppq="96" velocity="0.843"/>
      <note number="2" values="588" ticks="258" durationTicks="35" ppq="96" velocity="0.906"/>
      <note number="3" values="588" ticks="306" durationTicks="36" ppq="96" velocity="0.858"/>
      <note number="4" values="388" ticks="360" durationTicks="83" ppq="96" velocity="0.906"/>
      <note number="5" values="388" ticks="450" durationTicks="95" ppq="96" velocity="0.906"/>
      <note number="6" values="188" ticks="541" durationTicks="85" ppq="96" velocity="0.802"/>
      <note number="7" values="188" ticks="636" durationTicks="82" ppq="96" velocity="0.799"/>
      <note number="8" values="68" ticks="721" durationTicks="76" ppq="96" velocity="0.906"/>
      <note number="9" values="58" ticks="808" durationTicks="95" ppq="96" velocity="0.906"/>
    </notes>
  </exercise>
  <exercise number="10">
    <scale>major</scale>
    <bpm>172</bpm>
    <lowestNote>5</lowestNote>
    <tonalities>5</tonalities>
    <video name="10t.mp4" size="1937426" type="video/mp4" volume="0.5">a62eea983e5d6c0947f88d2da676532050e8e4849b6db721993c6ae025ce1c48</video>
    <notes>
      <note number="1" values="58" ticks="74" durationTicks="170" ppq="96" velocity="0.843"/>
      <note number="2" values="28" ticks="247" durationTicks="97" ppq="96" velocity="0.906"/>
      <note number="3" values="28" ticks="361" durationTicks="66" ppq="96" velocity="0.85"/>
      <note number="4" values="58" ticks="432" durationTicks="93" ppq="96" velocity="0.906"/>
      <note number="5" values="58" ticks="538" durationTicks="80" ppq="96" velocity="0.906"/>
      <note number="6" values="28" ticks="625" durationTicks="177" ppq="96" velocity="0.795"/>
    </notes>
  </exercise>
  <exercise number="11">
    <scale>chromaticmajor</scale>
    <bpm>172</bpm>
    <lowestNote>5</lowestNote>
    <tonalities>5</tonalities>
    <video name="11t.mp4" size="2047675" type="video/mp4" volume="0.5">1ff38fa541fb589c52ebf5692fff5fb31264722d349315ba32a3d40f545e7a2a</video>
    <notes>
      <note number="1" values="38" ticks="85" durationTicks="79" ppq="96" velocity="0.843"/>
      <note number="2" values="38" ticks="178" durationTicks="40" ppq="96" velocity="0.906"/>
      <note number="3" values="38" ticks="225" durationTicks="39" ppq="96" velocity="0.858"/>
      <note number="4" values="38" ticks="274" durationTicks="89" ppq="96" velocity="0.906"/>
      <note number="5" values="38" ticks="371" durationTicks="95" ppq="96" velocity="0.906"/>
      <note number="6" values="48" ticks="464" durationTicks="95" ppq="96" velocity="0.802"/>
      <note number="7" values="97" ticks="600" durationTicks="189" ppq="96" velocity="0.799"/>
    </notes>
  </exercise>
</level>
